<svg xmlns="http://www.w3.org/2000/svg" xmlns:xlink="http://www.w3.org/1999/xlink" width="2048" zoomAndPan="magnify" viewBox="0 0 1536 576" height="768" preserveAspectRatio="xMidYMid meet" version="1.0"><defs><clipPath id="c65bbf12f3"><path d="M 0 494.875 L 1536 494.875 L 1536 576 L 0 576 Z M 0 494.875 " clip-rule="nonzero"/></clipPath><clipPath id="f44c7a5bf7"><path d="M 0 0.875 L 1536 0.875 L 1536 82 L 0 82 Z M 0 0.875 " clip-rule="nonzero"/></clipPath><clipPath id="8b856a2795"><rect x="0" width="1536" y="0" height="82"/></clipPath></defs><path fill="#519872" d="M -3.695312 288 C -3.695312 288 87.148438 444.746094 502.71875 448.757812 C 1000.277344 453.574219 1289.664062 288 1539.695312 365.167969 L 1539.695312 497.007812 L -3.695312 497.007812 Z M -3.695312 288 " fill-opacity="1" fill-rule="nonzero"/><path fill="#36664d" d="M -3.695312 288 L -3.695312 368.8125 C 68.253906 411.164062 282.570312 501.976562 729.136719 439.4375 C 653.8125 446.363281 578.328125 449.449219 502.691406 448.699219 C 87.148438 444.746094 -3.695312 288 -3.695312 288 Z M -3.695312 288 " fill-opacity="1" fill-rule="nonzero"/><path fill="#36664d" d="M 1046.953125 392.488281 C 1100.816406 385.417969 1165.359375 377.054688 1234.226562 368.378906 C 1419.125 345.074219 1539.816406 398.660156 1539.816406 398.660156 L 1539.816406 365.167969 C 1398.257812 321.523438 1244.195312 355.539062 1046.953125 392.488281 Z M 1046.953125 392.488281 " fill-opacity="1" fill-rule="nonzero"/><g clip-path="url(#c65bbf12f3)"><g transform="matrix(1, 0, 0, 1, 0, 494)"><g clip-path="url(#8b856a2795)"><g clip-path="url(#f44c7a5bf7)"><path fill="#519872" d="M 0 0.875 L 1541.988281 0.875 L 1541.988281 82 L 0 82 Z M 0 0.875 " fill-opacity="1" fill-rule="nonzero"/></g></g></g></g></svg>