<svg xmlns="http://www.w3.org/2000/svg" xmlns:xlink="http://www.w3.org/1999/xlink" width="2048" zoomAndPan="magnify" viewBox="0 0 1536 576" height="768" preserveAspectRatio="xMidYMid meet" version="1.0"><defs><clipPath id="1a12e29fd7"><path d="M 0 498.378906 L 1536 498.378906 L 1536 576 L 0 576 Z M 0 498.378906 " clip-rule="nonzero"/></clipPath><clipPath id="e6d1fbc842"><path d="M 0 0.378906 L 1536 0.378906 L 1536 78 L 0 78 Z M 0 0.378906 " clip-rule="nonzero"/></clipPath><clipPath id="bad572a736"><rect x="0" width="1536" y="0" height="78"/></clipPath><clipPath id="85e26afa59"><path d="M 0 199 L 1536 199 L 1536 498.128906 L 0 498.128906 Z M 0 199 " clip-rule="nonzero"/></clipPath><clipPath id="7920ea129c"><path d="M 0 212 L 1536 212 L 1536 498.128906 L 0 498.128906 Z M 0 212 " clip-rule="nonzero"/></clipPath><clipPath id="b296ba2fc7"><path d="M 0 349 L 1536 349 L 1536 498.128906 L 0 498.128906 Z M 0 349 " clip-rule="nonzero"/></clipPath></defs><g clip-path="url(#1a12e29fd7)"><g transform="matrix(1, 0, 0, 1, 0, 498)"><g clip-path="url(#bad572a736)"><g clip-path="url(#e6d1fbc842)"><path fill="#c62b46" d="M -3.894531 0.378906 L 1540.023438 0.378906 L 1540.023438 78 L -3.894531 78 Z M -3.894531 0.378906 " fill-opacity="1" fill-rule="nonzero"/></g></g></g></g><g clip-path="url(#85e26afa59)"><path fill="#59121e" d="M 0 245.574219 L 0 498.15625 L 1535.964844 498.15625 L 1535.964844 249.84375 C 1526.957031 250.703125 1517.742188 251.71875 1508.292969 252.933594 C 1403.726562 266.246094 1271.441406 301.375 1176.035156 303.367188 C 1080.632812 305.359375 1022.117188 274.226562 960.171875 254.265625 C 898.230469 234.320312 832.878906 225.546875 772.015625 231.875 C 711.167969 238.203125 654.8125 259.628906 596.648438 268.945312 C 538.484375 278.257812 478.484375 275.476562 418.210938 260.558594 C 357.9375 245.644531 297.363281 218.59375 242.507812 206.597656 C 187.652344 194.601562 138.5 197.652344 60.695312 223.539062 C 41.898438 229.796875 21.429688 237.390625 0 245.574219 Z M 0 245.574219 " fill-opacity="1" fill-rule="evenodd"/></g><g clip-path="url(#7920ea129c)"><path fill="#992035" d="M 1535.964844 498.15625 L 1535.964844 252.273438 C 1512.648438 254.0625 1488.316406 257.152344 1462.785156 262.027344 C 1334.394531 286.59375 1176.054688 356.535156 1054.074219 362.207031 C 932.09375 367.875 846.511719 309.273438 764.121094 268.640625 C 681.742188 228.011719 602.554688 205.316406 526.589844 214.765625 C 450.625 224.214844 377.867188 265.804688 310.457031 295.097656 C 243.046875 324.390625 181.003906 341.398438 122.148438 338.566406 C 82.765625 336.675781 44.816406 325.875 -0.0351562 312.429688 L -0.0351562 498.121094 L 1535.933594 498.121094 Z M 1535.964844 498.15625 " fill-opacity="1" fill-rule="evenodd"/></g><g clip-path="url(#b296ba2fc7)"><path fill="#c62b46" d="M 0 352.183594 L 0 498.136719 L 1535.964844 498.136719 L 1535.964844 389 C 1521.152344 387.582031 1507.195312 385.894531 1494.070312 384.105469 C 1446.992188 377.644531 1410.613281 369.5625 1367.820312 366.324219 C 1325.03125 363.082031 1275.808594 364.703125 1235.144531 374.40625 C 1194.496094 384.105469 1162.386719 401.890625 1127.085938 410.378906 C 1091.785156 418.867188 1053.265625 418.058594 1015.820312 412 C 978.378906 405.941406 942 394.621094 905.621094 382.910156 C 869.242188 371.183594 832.863281 359.066406 778.292969 353.007812 C 723.722656 346.953125 650.964844 346.953125 581.429688 358.660156 C 511.894531 370.390625 445.546875 393.828125 385.628906 402.71875 C 325.710938 411.609375 272.222656 405.957031 235.839844 397.875 C 199.460938 389.792969 180.210938 379.28125 143.746094 369.578125 C 107.28125 359.875 53.640625 350.984375 16.183594 351.390625 C 10.445312 351.457031 5.097656 351.726562 -0.015625 352.199219 Z M 0 352.183594 " fill-opacity="1" fill-rule="evenodd"/></g></svg>