<svg xmlns="http://www.w3.org/2000/svg" xmlns:xlink="http://www.w3.org/1999/xlink" width="2048" zoomAndPan="magnify" viewBox="0 0 1536 576" height="768" preserveAspectRatio="xMidYMid meet" version="1.0"><defs><clipPath id="d5f943a42d"><path d="M 766.546875 545 L 789 545 L 789 568 L 766.546875 568 Z M 766.546875 545 " clip-rule="nonzero"/></clipPath><clipPath id="fcc16b4f19"><path d="M 1363 1.453125 L 1415 1.453125 L 1415 53 L 1363 53 Z M 1363 1.453125 " clip-rule="nonzero"/></clipPath></defs><g clip-path="url(#d5f943a42d)"><path fill="#d9d9d9" d="M 766.691406 556.613281 C 774.902344 555.164062 776.082031 553.988281 777.53125 545.773438 C 778.980469 553.988281 780.15625 555.164062 788.371094 556.613281 C 780.15625 558.0625 778.980469 559.242188 777.53125 567.453125 C 776.082031 559.242188 774.902344 558.0625 766.691406 556.613281 Z M 766.691406 556.613281 " fill-opacity="1" fill-rule="nonzero"/></g><path fill="#b4b4b4" d="M 1226.097656 219.171875 C 1240.089844 216.703125 1242.09375 214.703125 1244.5625 200.710938 C 1247.03125 214.703125 1249.03125 216.703125 1263.023438 219.171875 C 1249.03125 221.640625 1247.03125 223.640625 1244.5625 237.636719 C 1242.09375 223.640625 1240.089844 221.640625 1226.097656 219.171875 Z M 1226.097656 219.171875 " fill-opacity="1" fill-rule="nonzero"/><path fill="#b4b4b4" d="M 1392.570312 471.070312 C 1401.234375 469.542969 1402.472656 468.304688 1404 459.640625 C 1405.53125 468.304688 1406.765625 469.542969 1415.429688 471.070312 C 1406.765625 472.601562 1405.53125 473.835938 1404 482.5 C 1402.472656 473.835938 1401.234375 472.601562 1392.570312 471.070312 Z M 1392.570312 471.070312 " fill-opacity="1" fill-rule="nonzero"/><path fill="#d9d9d9" d="M 920.75 472.890625 C 928.078125 471.59375 929.128906 470.546875 930.417969 463.222656 C 931.710938 470.546875 932.761719 471.601562 940.085938 472.890625 C 932.753906 474.1875 931.707031 475.234375 930.417969 482.558594 C 929.121094 475.234375 928.070312 474.179688 920.75 472.890625 Z M 920.75 472.890625 " fill-opacity="1" fill-rule="nonzero"/><path fill="#d9d9d9" d="M 1104.941406 57.914062 C 1112.269531 56.617188 1113.320312 55.570312 1114.609375 48.246094 C 1115.902344 55.570312 1116.953125 56.625 1124.277344 57.914062 C 1116.945312 59.210938 1115.898438 60.257812 1114.609375 67.582031 C 1113.3125 60.257812 1112.265625 59.203125 1104.941406 57.914062 Z M 1104.941406 57.914062 " fill-opacity="1" fill-rule="nonzero"/><g clip-path="url(#fcc16b4f19)"><path fill="#b4b4b4" d="M 1363.222656 26.972656 C 1382.539062 23.566406 1385.304688 20.796875 1388.71875 1.476562 C 1392.125 20.792969 1394.894531 23.558594 1414.214844 26.972656 C 1394.898438 30.378906 1392.132812 33.144531 1388.71875 52.46875 C 1385.3125 33.152344 1382.546875 30.386719 1363.222656 26.972656 Z M 1363.222656 26.972656 " fill-opacity="1" fill-rule="nonzero"/></g><path fill="#d9d9d9" d="M 811.8125 284.695312 C 830.246094 281.441406 832.882812 278.804688 836.136719 260.371094 C 839.390625 278.796875 842.027344 281.441406 860.460938 284.695312 C 842.027344 287.949219 839.390625 290.585938 836.136719 309.019531 C 832.882812 290.59375 830.246094 287.949219 811.8125 284.695312 Z M 811.8125 284.695312 " fill-opacity="1" fill-rule="nonzero"/><path fill="#d9d9d9" d="M 1231.195312 568.628906 C 1245.1875 566.160156 1247.191406 564.15625 1249.65625 550.164062 C 1252.125 564.15625 1254.128906 566.160156 1268.121094 568.628906 C 1254.128906 571.09375 1252.125 573.097656 1249.65625 587.089844 C 1247.191406 573.097656 1245.1875 571.09375 1231.195312 568.628906 Z M 1231.195312 568.628906 " fill-opacity="1" fill-rule="nonzero"/><path fill="#d9d9d9" d="M 1442.105469 268.3125 C 1460.976562 264.980469 1463.683594 262.277344 1467.011719 243.410156 C 1470.347656 262.277344 1473.046875 264.988281 1491.917969 268.3125 C 1473.046875 271.648438 1470.339844 274.351562 1467.011719 293.21875 C 1463.675781 274.351562 1460.976562 271.640625 1442.105469 268.3125 Z M 1442.105469 268.3125 " fill-opacity="1" fill-rule="nonzero"/><path fill="#d9d9d9" d="M 887.507812 354.949219 C 900.167969 352.714844 901.972656 350.902344 904.207031 338.25 C 906.441406 350.910156 908.253906 352.714844 920.910156 354.949219 C 908.246094 357.183594 906.441406 358.996094 904.207031 371.652344 C 901.972656 358.992188 900.160156 357.183594 887.507812 354.949219 Z M 887.507812 354.949219 " fill-opacity="1" fill-rule="nonzero"/><path fill="#a6a6a6" d="M 969.925781 591.925781 C 991.019531 588.195312 994.039062 585.183594 997.765625 564.085938 C 1001.492188 585.183594 1004.507812 588.195312 1025.605469 591.925781 C 1004.515625 595.652344 1001.492188 598.664062 997.765625 619.765625 C 994.039062 598.664062 991.023438 595.652344 969.925781 591.925781 Z M 969.925781 591.925781 " fill-opacity="1" fill-rule="nonzero"/><path fill="#a6a6a6" d="M 1168.207031 277.777344 C 1184.410156 274.917969 1186.734375 272.59375 1189.59375 256.390625 C 1192.457031 272.59375 1194.777344 274.917969 1210.984375 277.777344 C 1194.777344 280.640625 1192.457031 282.960938 1189.59375 299.167969 C 1186.734375 282.960938 1184.410156 280.640625 1168.207031 277.777344 Z M 1168.207031 277.777344 " fill-opacity="1" fill-rule="nonzero"/><path fill="#d9d9d9" d="M 1363.414062 179.128906 C 1376.515625 176.816406 1378.386719 174.945312 1380.703125 161.839844 C 1383.019531 174.9375 1384.890625 176.816406 1397.996094 179.128906 C 1384.890625 181.445312 1383.019531 183.316406 1380.703125 196.421875 C 1378.386719 183.324219 1376.515625 181.445312 1363.414062 179.128906 Z M 1363.414062 179.128906 " fill-opacity="1" fill-rule="nonzero"/><path fill="#d9d9d9" d="M 1442.425781 336.75 C 1457.742188 334.039062 1459.941406 331.847656 1462.644531 316.53125 C 1465.351562 331.855469 1467.542969 334.046875 1482.859375 336.75 C 1467.542969 339.457031 1465.34375 341.648438 1462.644531 356.964844 C 1459.933594 341.640625 1457.742188 339.449219 1442.425781 336.75 Z M 1442.425781 336.75 " fill-opacity="1" fill-rule="nonzero"/><path fill="#d9d9d9" d="M 1459.898438 357.132812 C 1475.214844 354.425781 1477.414062 352.234375 1480.117188 336.917969 C 1482.824219 352.242188 1485.015625 354.433594 1500.332031 357.132812 C 1485.015625 359.84375 1482.816406 362.035156 1480.117188 377.351562 C 1477.40625 362.027344 1475.214844 359.835938 1459.898438 357.132812 Z M 1459.898438 357.132812 " fill-opacity="1" fill-rule="nonzero"/><path fill="#a6a6a6" d="M 1429.3125 111.421875 C 1445.972656 108.480469 1448.351562 106.101562 1451.292969 89.445312 C 1454.234375 106.101562 1456.617188 108.480469 1473.273438 111.421875 C 1456.617188 114.363281 1454.234375 116.746094 1451.292969 133.402344 C 1448.351562 116.746094 1445.972656 114.363281 1429.3125 111.421875 Z M 1429.3125 111.421875 " fill-opacity="1" fill-rule="nonzero"/><path fill="#d9d9d9" d="M 947.589844 174.035156 C 958.023438 172.191406 959.523438 170.699219 961.363281 160.261719 C 963.207031 170.691406 964.699219 172.191406 975.140625 174.035156 C 964.707031 175.875 963.207031 177.367188 961.363281 187.808594 C 959.523438 177.375 958.03125 175.875 947.589844 174.035156 Z M 947.589844 174.035156 " fill-opacity="1" fill-rule="nonzero"/><path fill="#d9d9d9" d="M 1338.753906 498.734375 C 1358.957031 495.167969 1361.855469 492.277344 1365.421875 472.066406 C 1368.988281 492.277344 1371.878906 495.167969 1392.089844 498.734375 C 1371.886719 502.304688 1368.988281 505.195312 1365.421875 525.402344 C 1361.855469 505.195312 1358.964844 502.304688 1338.753906 498.734375 Z M 1338.753906 498.734375 " fill-opacity="1" fill-rule="nonzero"/><path fill="#a6a6a6" d="M 864.472656 345.121094 C 872.238281 343.753906 873.351562 342.640625 874.730469 334.863281 C 876.097656 342.632812 877.210938 343.746094 884.988281 345.121094 C 877.21875 346.492188 876.105469 347.605469 874.730469 355.378906 C 873.359375 347.613281 872.246094 346.496094 864.472656 345.121094 Z M 864.472656 345.121094 " fill-opacity="1" fill-rule="nonzero"/><path fill="#b4b4b4" d="M 1488.414062 372.421875 C 1506.40625 369.25 1508.976562 366.671875 1512.148438 348.6875 C 1515.324219 366.671875 1517.902344 369.25 1535.882812 372.421875 C 1517.894531 375.597656 1515.324219 378.175781 1512.148438 396.15625 C 1508.976562 378.175781 1506.398438 375.597656 1488.414062 372.421875 Z M 1488.414062 372.421875 " fill-opacity="1" fill-rule="nonzero"/><path fill="#a6a6a6" d="M 954.449219 89.945312 C 971.550781 86.925781 973.996094 84.480469 977.011719 67.386719 C 980.03125 84.488281 982.476562 86.933594 999.570312 89.945312 C 982.46875 92.96875 980.023438 95.414062 977.011719 112.507812 C 973.988281 95.40625 971.542969 92.960938 954.449219 89.945312 Z M 954.449219 89.945312 " fill-opacity="1" fill-rule="nonzero"/><path fill="#b4b4b4" d="M 1000.066406 342.574219 C 1011.839844 340.5 1013.519531 338.808594 1015.597656 327.042969 C 1017.671875 338.816406 1019.359375 340.5 1031.125 342.574219 C 1019.351562 344.648438 1017.671875 346.335938 1015.597656 358.101562 C 1013.519531 346.332031 1011.832031 344.648438 1000.066406 342.574219 Z M 1000.066406 342.574219 " fill-opacity="1" fill-rule="nonzero"/><path fill="#bdbdbd" d="M 212.839844 0.144531 C 214.289062 8.355469 215.46875 9.535156 223.679688 10.984375 C 215.46875 12.433594 214.289062 13.613281 212.839844 21.824219 C 211.390625 13.613281 210.210938 12.433594 202 10.984375 C 210.210938 9.535156 211.390625 8.355469 212.839844 0.144531 Z M 212.839844 0.144531 " fill-opacity="1" fill-rule="nonzero"/><path fill="#929292" d="M 550.28125 459.554688 C 552.75 473.546875 554.753906 475.546875 568.746094 478.015625 C 554.753906 480.484375 552.75 482.488281 550.28125 496.480469 C 547.8125 482.488281 545.8125 480.484375 531.820312 478.015625 C 545.8125 475.546875 547.8125 473.546875 550.28125 459.554688 Z M 550.28125 459.554688 " fill-opacity="1" fill-rule="nonzero"/><path fill="#bdbdbd" d="M 296.5625 154.203125 C 297.859375 161.535156 298.90625 162.582031 306.230469 163.871094 C 298.90625 165.167969 297.851562 166.214844 296.5625 173.539062 C 295.265625 166.207031 294.21875 165.160156 286.894531 163.871094 C 294.21875 162.574219 295.273438 161.527344 296.5625 154.203125 Z M 296.5625 154.203125 " fill-opacity="1" fill-rule="nonzero"/><path fill="#bdbdbd" d="M 711.542969 338.394531 C 712.835938 345.726562 713.886719 346.773438 721.210938 348.0625 C 713.886719 349.359375 712.828125 350.40625 711.542969 357.730469 C 710.246094 350.398438 709.195312 349.351562 701.871094 348.0625 C 709.195312 346.765625 710.253906 345.71875 711.542969 338.394531 Z M 711.542969 338.394531 " fill-opacity="1" fill-rule="nonzero"/><path fill="#bdbdbd" d="M 484.757812 45.265625 C 488.015625 63.703125 490.648438 66.335938 509.082031 69.589844 C 490.65625 72.84375 488.015625 75.480469 484.757812 93.914062 C 481.503906 75.480469 478.871094 72.84375 460.4375 69.589844 C 478.863281 66.335938 481.503906 63.703125 484.757812 45.265625 Z M 484.757812 45.265625 " fill-opacity="1" fill-rule="nonzero"/><path fill="#bdbdbd" d="M 200.828125 464.648438 C 203.296875 478.640625 205.296875 480.644531 219.289062 483.113281 C 205.296875 485.582031 203.296875 487.582031 200.828125 501.574219 C 198.359375 487.582031 196.355469 485.582031 182.363281 483.113281 C 196.355469 480.644531 198.359375 478.640625 200.828125 464.648438 Z M 200.828125 464.648438 " fill-opacity="1" fill-rule="nonzero"/><path fill="#bdbdbd" d="M 414.503906 120.960938 C 416.738281 133.621094 418.550781 135.425781 431.207031 137.660156 C 418.546875 139.898438 416.738281 141.710938 414.503906 154.363281 C 412.269531 141.703125 410.457031 139.898438 397.804688 137.660156 C 410.464844 135.425781 412.269531 133.613281 414.503906 120.960938 Z M 414.503906 120.960938 " fill-opacity="1" fill-rule="nonzero"/><path fill="#969696" d="M 177.53125 203.382812 C 181.257812 224.472656 184.273438 227.492188 205.371094 231.222656 C 184.273438 234.949219 181.257812 237.960938 177.53125 259.0625 C 173.804688 237.96875 170.789062 234.949219 149.691406 231.222656 C 170.789062 227.492188 173.804688 224.480469 177.53125 203.382812 Z M 177.53125 203.382812 " fill-opacity="1" fill-rule="nonzero"/><path fill="#969696" d="M 491.675781 401.660156 C 494.535156 417.867188 496.859375 420.1875 513.066406 423.050781 C 496.859375 425.910156 494.535156 428.234375 491.675781 444.441406 C 488.816406 428.234375 486.492188 425.910156 470.285156 423.050781 C 486.492188 420.1875 488.816406 417.867188 491.675781 401.660156 Z M 491.675781 401.660156 " fill-opacity="1" fill-rule="nonzero"/><path fill="#929292" d="M 41.023438 422.328125 C 44.046875 439.429688 46.492188 441.878906 63.585938 444.890625 C 46.492188 447.914062 44.039062 450.359375 41.023438 467.453125 C 38.003906 450.351562 35.558594 447.90625 18.460938 444.890625 C 35.558594 441.871094 38.011719 439.421875 41.023438 422.328125 Z M 41.023438 422.328125 " fill-opacity="1" fill-rule="nonzero"/><path fill="#bdbdbd" d="M 595.421875 181.046875 C 597.261719 191.476562 598.753906 192.976562 609.195312 194.820312 C 598.761719 196.660156 597.261719 198.152344 595.421875 208.59375 C 593.578125 198.160156 592.085938 196.660156 581.644531 194.820312 C 592.078125 192.976562 593.578125 191.484375 595.421875 181.046875 Z M 595.421875 181.046875 " fill-opacity="1" fill-rule="nonzero"/><path fill="#bdbdbd" d="M 270.71875 572.210938 C 274.285156 592.410156 277.175781 595.308594 297.386719 598.875 C 277.175781 602.445312 274.285156 605.335938 270.71875 625.542969 C 267.152344 605.34375 264.261719 602.445312 244.050781 598.875 C 264.261719 595.308594 267.152344 592.417969 270.71875 572.210938 Z M 270.71875 572.210938 " fill-opacity="1" fill-rule="nonzero"/><path fill="#bdbdbd" d="M 103.636719 358.175781 C 105.398438 368.164062 106.832031 369.597656 116.820312 371.359375 C 106.824219 373.121094 105.398438 374.554688 103.636719 384.542969 C 101.875 374.554688 100.4375 373.121094 90.449219 371.359375 C 100.445312 369.597656 101.875 368.164062 103.636719 358.175781 Z M 103.636719 358.175781 " fill-opacity="1" fill-rule="nonzero"/><path fill="#969696" d="M 424.332031 97.925781 C 425.703125 105.695312 426.816406 106.808594 434.589844 108.183594 C 426.824219 109.550781 425.707031 110.667969 424.332031 118.441406 C 422.964844 110.675781 421.851562 109.558594 414.074219 108.183594 C 421.84375 106.816406 422.957031 105.703125 424.332031 97.925781 Z M 424.332031 97.925781 " fill-opacity="1" fill-rule="nonzero"/><path fill="#969696" d="M 679.507812 187.902344 C 682.527344 205.003906 684.976562 207.449219 702.070312 210.464844 C 684.96875 213.488281 682.523438 215.933594 679.507812 233.027344 C 676.488281 215.925781 674.039062 213.480469 656.945312 210.464844 C 674.046875 207.445312 676.492188 204.996094 679.507812 187.902344 Z M 679.507812 187.902344 " fill-opacity="1" fill-rule="nonzero"/><path fill="#929292" d="M 426.882812 233.523438 C 428.957031 245.292969 430.644531 246.976562 442.410156 249.050781 C 430.636719 251.125 428.957031 252.816406 426.882812 264.578125 C 424.804688 252.808594 423.117188 251.125 411.351562 249.050781 C 423.125 246.976562 424.804688 245.285156 426.882812 233.523438 Z M 426.882812 233.523438 " fill-opacity="1" fill-rule="nonzero"/><path fill="#bdbdbd" d="M 29.011719 450.46875 C 32.890625 472.445312 36.039062 475.597656 58.023438 479.480469 C 36.042969 483.359375 32.890625 486.503906 29.011719 508.492188 C 25.132812 486.511719 21.988281 483.359375 0 479.480469 C 21.980469 475.597656 25.132812 472.453125 29.011719 450.46875 Z M 29.011719 450.46875 " fill-opacity="1" fill-rule="nonzero"/></svg>