<svg xmlns="http://www.w3.org/2000/svg" xmlns:xlink="http://www.w3.org/1999/xlink" width="2048" zoomAndPan="magnify" viewBox="0 0 1536 576" height="768" preserveAspectRatio="xMidYMid meet" version="1.0"><defs><linearGradient x1="1024" gradientTransform="matrix(0.75, 0, 0, 0.75, 0, 0.00002)" y1="0" x2="1024" gradientUnits="userSpaceOnUse" y2="767.999968" id="a7502b926b"><stop stop-opacity="1" stop-color="rgb(18.429565%, 20.779419%, 22.749329%)" offset="0"/><stop stop-opacity="1" stop-color="rgb(18.284607%, 20.61615%, 22.570801%)" offset="0.015625"/><stop stop-opacity="1" stop-color="rgb(17.996216%, 20.291138%, 22.215271%)" offset="0.03125"/><stop stop-opacity="1" stop-color="rgb(17.709351%, 19.967651%, 21.859741%)" offset="0.046875"/><stop stop-opacity="1" stop-color="rgb(17.420959%, 19.642639%, 21.504211%)" offset="0.0625"/><stop stop-opacity="1" stop-color="rgb(17.132568%, 19.317627%, 21.148682%)" offset="0.078125"/><stop stop-opacity="1" stop-color="rgb(16.844177%, 18.992615%, 20.793152%)" offset="0.09375"/><stop stop-opacity="1" stop-color="rgb(16.557312%, 18.667603%, 20.437622%)" offset="0.109375"/><stop stop-opacity="1" stop-color="rgb(16.268921%, 18.344116%, 20.082092%)" offset="0.125"/><stop stop-opacity="1" stop-color="rgb(15.98053%, 18.019104%, 19.726562%)" offset="0.140625"/><stop stop-opacity="1" stop-color="rgb(15.693665%, 17.694092%, 19.371033%)" offset="0.15625"/><stop stop-opacity="1" stop-color="rgb(15.405273%, 17.36908%, 19.015503%)" offset="0.171875"/><stop stop-opacity="1" stop-color="rgb(15.116882%, 17.044067%, 18.659973%)" offset="0.1875"/><stop stop-opacity="1" stop-color="rgb(14.828491%, 16.720581%, 18.304443%)" offset="0.203125"/><stop stop-opacity="1" stop-color="rgb(14.541626%, 16.395569%, 17.950439%)" offset="0.21875"/><stop stop-opacity="1" stop-color="rgb(14.253235%, 16.070557%, 17.59491%)" offset="0.234375"/><stop stop-opacity="1" stop-color="rgb(13.964844%, 15.745544%, 17.23938%)" offset="0.25"/><stop stop-opacity="1" stop-color="rgb(13.676453%, 15.420532%, 16.88385%)" offset="0.265625"/><stop stop-opacity="1" stop-color="rgb(13.389587%, 15.097046%, 16.52832%)" offset="0.28125"/><stop stop-opacity="1" stop-color="rgb(13.101196%, 14.772034%, 16.172791%)" offset="0.296875"/><stop stop-opacity="1" stop-color="rgb(12.812805%, 14.447021%, 15.817261%)" offset="0.3125"/><stop stop-opacity="1" stop-color="rgb(12.52594%, 14.122009%, 15.461731%)" offset="0.328125"/><stop stop-opacity="1" stop-color="rgb(12.237549%, 13.798523%, 15.106201%)" offset="0.34375"/><stop stop-opacity="1" stop-color="rgb(11.949158%, 13.473511%, 14.750671%)" offset="0.359375"/><stop stop-opacity="1" stop-color="rgb(11.660767%, 13.148499%, 14.395142%)" offset="0.375"/><stop stop-opacity="1" stop-color="rgb(11.373901%, 12.823486%, 14.039612%)" offset="0.390625"/><stop stop-opacity="1" stop-color="rgb(11.08551%, 12.498474%, 13.684082%)" offset="0.40625"/><stop stop-opacity="1" stop-color="rgb(10.797119%, 12.174988%, 13.328552%)" offset="0.421875"/><stop stop-opacity="1" stop-color="rgb(10.510254%, 11.849976%, 12.973022%)" offset="0.4375"/><stop stop-opacity="1" stop-color="rgb(10.221863%, 11.524963%, 12.617493%)" offset="0.453125"/><stop stop-opacity="1" stop-color="rgb(9.933472%, 11.199951%, 12.261963%)" offset="0.46875"/><stop stop-opacity="1" stop-color="rgb(9.645081%, 10.874939%, 11.906433%)" offset="0.484375"/><stop stop-opacity="1" stop-color="rgb(9.358215%, 10.551453%, 11.550903%)" offset="0.5"/><stop stop-opacity="1" stop-color="rgb(9.069824%, 10.22644%, 11.195374%)" offset="0.515625"/><stop stop-opacity="1" stop-color="rgb(8.781433%, 9.901428%, 10.839844%)" offset="0.53125"/><stop stop-opacity="1" stop-color="rgb(8.493042%, 9.576416%, 10.484314%)" offset="0.546875"/><stop stop-opacity="1" stop-color="rgb(8.206177%, 9.25293%, 10.128784%)" offset="0.5625"/><stop stop-opacity="1" stop-color="rgb(7.917786%, 8.927917%, 9.773254%)" offset="0.578125"/><stop stop-opacity="1" stop-color="rgb(7.629395%, 8.602905%, 9.417725%)" offset="0.59375"/><stop stop-opacity="1" stop-color="rgb(7.342529%, 8.277893%, 9.063721%)" offset="0.609375"/><stop stop-opacity="1" stop-color="rgb(7.054138%, 7.952881%, 8.708191%)" offset="0.625"/><stop stop-opacity="1" stop-color="rgb(6.765747%, 7.629395%, 8.352661%)" offset="0.640625"/><stop stop-opacity="1" stop-color="rgb(6.477356%, 7.304382%, 7.997131%)" offset="0.65625"/><stop stop-opacity="1" stop-color="rgb(6.190491%, 6.97937%, 7.641602%)" offset="0.671875"/><stop stop-opacity="1" stop-color="rgb(5.9021%, 6.654358%, 7.286072%)" offset="0.6875"/><stop stop-opacity="1" stop-color="rgb(5.613708%, 6.329346%, 6.930542%)" offset="0.703125"/><stop stop-opacity="1" stop-color="rgb(5.326843%, 6.005859%, 6.575012%)" offset="0.71875"/><stop stop-opacity="1" stop-color="rgb(5.038452%, 5.680847%, 6.219482%)" offset="0.734375"/><stop stop-opacity="1" stop-color="rgb(4.750061%, 5.355835%, 5.863953%)" offset="0.75"/><stop stop-opacity="1" stop-color="rgb(4.46167%, 5.030823%, 5.508423%)" offset="0.765625"/><stop stop-opacity="1" stop-color="rgb(4.174805%, 4.707336%, 5.152893%)" offset="0.78125"/><stop stop-opacity="1" stop-color="rgb(3.886414%, 4.382324%, 4.797363%)" offset="0.796875"/><stop stop-opacity="1" stop-color="rgb(3.598022%, 4.057312%, 4.441833%)" offset="0.8125"/><stop stop-opacity="1" stop-color="rgb(3.309631%, 3.7323%, 4.086304%)" offset="0.828125"/><stop stop-opacity="1" stop-color="rgb(3.022766%, 3.407288%, 3.730774%)" offset="0.84375"/><stop stop-opacity="1" stop-color="rgb(2.734375%, 3.083801%, 3.375244%)" offset="0.859375"/><stop stop-opacity="1" stop-color="rgb(2.445984%, 2.758789%, 3.019714%)" offset="0.875"/><stop stop-opacity="1" stop-color="rgb(2.159119%, 2.433777%, 2.664185%)" offset="0.890625"/><stop stop-opacity="1" stop-color="rgb(1.870728%, 2.108765%, 2.308655%)" offset="0.90625"/><stop stop-opacity="1" stop-color="rgb(1.582336%, 1.783752%, 1.953125%)" offset="0.921875"/><stop stop-opacity="1" stop-color="rgb(1.293945%, 1.460266%, 1.597595%)" offset="0.9375"/><stop stop-opacity="1" stop-color="rgb(1.00708%, 1.135254%, 1.242065%)" offset="0.953125"/><stop stop-opacity="1" stop-color="rgb(0.718689%, 0.810242%, 0.886536%)" offset="0.96875"/><stop stop-opacity="1" stop-color="rgb(0.430298%, 0.485229%, 0.531006%)" offset="0.984375"/><stop stop-opacity="1" stop-color="rgb(0.143433%, 0.161743%, 0.177002%)" offset="1"/></linearGradient><clipPath id="e168279677"><path d="M 766.546875 545 L 789 545 L 789 568 L 766.546875 568 Z M 766.546875 545 " clip-rule="nonzero"/></clipPath><clipPath id="c9f561d453"><path d="M 1363 1.453125 L 1415 1.453125 L 1415 53 L 1363 53 Z M 1363 1.453125 " clip-rule="nonzero"/></clipPath><clipPath id="ea18197dfb"><path d="M 1015 67 L 1162.535156 67 L 1162.535156 217 L 1015 217 Z M 1015 67 " clip-rule="nonzero"/></clipPath></defs><rect x="-153.6" width="1843.2" fill="#ffffff" y="-57.6" height="691.2" fill-opacity="1"/><rect x="-153.6" fill="url(#a7502b926b)" width="1843.2" y="-57.6" height="691.2"/><g clip-path="url(#e168279677)"><path fill="#d9d9d9" d="M 766.691406 556.613281 C 774.902344 555.164062 776.082031 553.988281 777.53125 545.773438 C 778.980469 553.988281 780.15625 555.164062 788.371094 556.613281 C 780.15625 558.0625 778.980469 559.242188 777.53125 567.453125 C 776.082031 559.242188 774.902344 558.0625 766.691406 556.613281 Z M 766.691406 556.613281 " fill-opacity="1" fill-rule="nonzero"/></g><path fill="#b4b4b4" d="M 1226.097656 219.171875 C 1240.089844 216.703125 1242.09375 214.703125 1244.5625 200.710938 C 1247.03125 214.703125 1249.03125 216.703125 1263.023438 219.171875 C 1249.03125 221.640625 1247.03125 223.640625 1244.5625 237.636719 C 1242.09375 223.640625 1240.089844 221.640625 1226.097656 219.171875 Z M 1226.097656 219.171875 " fill-opacity="1" fill-rule="nonzero"/><path fill="#b4b4b4" d="M 1392.570312 471.070312 C 1401.234375 469.542969 1402.472656 468.304688 1404 459.640625 C 1405.53125 468.304688 1406.765625 469.542969 1415.429688 471.070312 C 1406.765625 472.601562 1405.53125 473.835938 1404 482.5 C 1402.472656 473.835938 1401.234375 472.601562 1392.570312 471.070312 Z M 1392.570312 471.070312 " fill-opacity="1" fill-rule="nonzero"/><path fill="#d9d9d9" d="M 920.75 472.890625 C 928.078125 471.59375 929.128906 470.546875 930.417969 463.222656 C 931.710938 470.546875 932.761719 471.601562 940.085938 472.890625 C 932.753906 474.1875 931.707031 475.234375 930.417969 482.558594 C 929.121094 475.234375 928.070312 474.179688 920.75 472.890625 Z M 920.75 472.890625 " fill-opacity="1" fill-rule="nonzero"/><path fill="#d9d9d9" d="M 1104.941406 57.914062 C 1112.269531 56.617188 1113.320312 55.570312 1114.609375 48.246094 C 1115.902344 55.570312 1116.953125 56.625 1124.277344 57.914062 C 1116.945312 59.210938 1115.898438 60.257812 1114.609375 67.582031 C 1113.3125 60.257812 1112.265625 59.203125 1104.941406 57.914062 Z M 1104.941406 57.914062 " fill-opacity="1" fill-rule="nonzero"/><g clip-path="url(#c9f561d453)"><path fill="#b4b4b4" d="M 1363.222656 26.972656 C 1382.539062 23.566406 1385.304688 20.796875 1388.71875 1.476562 C 1392.125 20.792969 1394.894531 23.558594 1414.214844 26.972656 C 1394.898438 30.378906 1392.132812 33.144531 1388.71875 52.46875 C 1385.3125 33.152344 1382.546875 30.386719 1363.222656 26.972656 Z M 1363.222656 26.972656 " fill-opacity="1" fill-rule="nonzero"/></g><path fill="#d9d9d9" d="M 811.8125 284.695312 C 830.246094 281.441406 832.882812 278.804688 836.136719 260.371094 C 839.390625 278.796875 842.027344 281.441406 860.460938 284.695312 C 842.027344 287.949219 839.390625 290.585938 836.136719 309.019531 C 832.882812 290.59375 830.246094 287.949219 811.8125 284.695312 Z M 811.8125 284.695312 " fill-opacity="1" fill-rule="nonzero"/><path fill="#d9d9d9" d="M 1231.195312 568.628906 C 1245.1875 566.160156 1247.191406 564.15625 1249.65625 550.164062 C 1252.125 564.15625 1254.128906 566.160156 1268.121094 568.628906 C 1254.128906 571.09375 1252.125 573.097656 1249.65625 587.089844 C 1247.191406 573.097656 1245.1875 571.09375 1231.195312 568.628906 Z M 1231.195312 568.628906 " fill-opacity="1" fill-rule="nonzero"/><path fill="#d9d9d9" d="M 1442.105469 268.3125 C 1460.976562 264.980469 1463.683594 262.277344 1467.011719 243.410156 C 1470.347656 262.277344 1473.046875 264.988281 1491.917969 268.3125 C 1473.046875 271.648438 1470.339844 274.351562 1467.011719 293.21875 C 1463.675781 274.351562 1460.976562 271.640625 1442.105469 268.3125 Z M 1442.105469 268.3125 " fill-opacity="1" fill-rule="nonzero"/><path fill="#d9d9d9" d="M 887.507812 354.949219 C 900.167969 352.714844 901.972656 350.902344 904.207031 338.25 C 906.441406 350.910156 908.253906 352.714844 920.910156 354.949219 C 908.246094 357.183594 906.441406 358.996094 904.207031 371.652344 C 901.972656 358.992188 900.160156 357.183594 887.507812 354.949219 Z M 887.507812 354.949219 " fill-opacity="1" fill-rule="nonzero"/><path fill="#a6a6a6" d="M 969.925781 591.925781 C 991.019531 588.195312 994.039062 585.183594 997.765625 564.085938 C 1001.492188 585.183594 1004.507812 588.195312 1025.605469 591.925781 C 1004.515625 595.652344 1001.492188 598.664062 997.765625 619.765625 C 994.039062 598.664062 991.023438 595.652344 969.925781 591.925781 Z M 969.925781 591.925781 " fill-opacity="1" fill-rule="nonzero"/><path fill="#a6a6a6" d="M 1168.207031 277.777344 C 1184.410156 274.917969 1186.734375 272.59375 1189.59375 256.390625 C 1192.457031 272.59375 1194.777344 274.917969 1210.984375 277.777344 C 1194.777344 280.640625 1192.457031 282.960938 1189.59375 299.167969 C 1186.734375 282.960938 1184.410156 280.640625 1168.207031 277.777344 Z M 1168.207031 277.777344 " fill-opacity="1" fill-rule="nonzero"/><path fill="#d9d9d9" d="M 1363.414062 179.128906 C 1376.515625 176.816406 1378.386719 174.945312 1380.703125 161.839844 C 1383.019531 174.9375 1384.890625 176.816406 1397.996094 179.128906 C 1384.890625 181.445312 1383.019531 183.316406 1380.703125 196.421875 C 1378.386719 183.324219 1376.515625 181.445312 1363.414062 179.128906 Z M 1363.414062 179.128906 " fill-opacity="1" fill-rule="nonzero"/><path fill="#d9d9d9" d="M 1442.425781 336.75 C 1457.742188 334.039062 1459.941406 331.847656 1462.644531 316.53125 C 1465.351562 331.855469 1467.542969 334.046875 1482.859375 336.75 C 1467.542969 339.457031 1465.34375 341.648438 1462.644531 356.964844 C 1459.933594 341.640625 1457.742188 339.449219 1442.425781 336.75 Z M 1442.425781 336.75 " fill-opacity="1" fill-rule="nonzero"/><path fill="#d9d9d9" d="M 1459.898438 357.132812 C 1475.214844 354.425781 1477.414062 352.234375 1480.117188 336.917969 C 1482.824219 352.242188 1485.015625 354.433594 1500.332031 357.132812 C 1485.015625 359.84375 1482.816406 362.035156 1480.117188 377.351562 C 1477.40625 362.027344 1475.214844 359.835938 1459.898438 357.132812 Z M 1459.898438 357.132812 " fill-opacity="1" fill-rule="nonzero"/><path fill="#a6a6a6" d="M 1429.3125 111.421875 C 1445.972656 108.480469 1448.351562 106.101562 1451.292969 89.445312 C 1454.234375 106.101562 1456.617188 108.480469 1473.273438 111.421875 C 1456.617188 114.363281 1454.234375 116.746094 1451.292969 133.402344 C 1448.351562 116.746094 1445.972656 114.363281 1429.3125 111.421875 Z M 1429.3125 111.421875 " fill-opacity="1" fill-rule="nonzero"/><path fill="#d9d9d9" d="M 947.589844 174.035156 C 958.023438 172.191406 959.523438 170.699219 961.363281 160.261719 C 963.207031 170.691406 964.699219 172.191406 975.140625 174.035156 C 964.707031 175.875 963.207031 177.367188 961.363281 187.808594 C 959.523438 177.375 958.03125 175.875 947.589844 174.035156 Z M 947.589844 174.035156 " fill-opacity="1" fill-rule="nonzero"/><path fill="#d9d9d9" d="M 1338.753906 498.734375 C 1358.957031 495.167969 1361.855469 492.277344 1365.421875 472.066406 C 1368.988281 492.277344 1371.878906 495.167969 1392.089844 498.734375 C 1371.886719 502.304688 1368.988281 505.195312 1365.421875 525.402344 C 1361.855469 505.195312 1358.964844 502.304688 1338.753906 498.734375 Z M 1338.753906 498.734375 " fill-opacity="1" fill-rule="nonzero"/><path fill="#a6a6a6" d="M 864.472656 345.121094 C 872.238281 343.753906 873.351562 342.640625 874.730469 334.863281 C 876.097656 342.632812 877.210938 343.746094 884.988281 345.121094 C 877.21875 346.492188 876.105469 347.605469 874.730469 355.378906 C 873.359375 347.613281 872.246094 346.496094 864.472656 345.121094 Z M 864.472656 345.121094 " fill-opacity="1" fill-rule="nonzero"/><path fill="#b4b4b4" d="M 1488.414062 372.421875 C 1506.40625 369.25 1508.976562 366.671875 1512.148438 348.6875 C 1515.324219 366.671875 1517.902344 369.25 1535.882812 372.421875 C 1517.894531 375.597656 1515.324219 378.175781 1512.148438 396.15625 C 1508.976562 378.175781 1506.398438 375.597656 1488.414062 372.421875 Z M 1488.414062 372.421875 " fill-opacity="1" fill-rule="nonzero"/><path fill="#a6a6a6" d="M 954.449219 89.945312 C 971.550781 86.925781 973.996094 84.480469 977.011719 67.386719 C 980.03125 84.488281 982.476562 86.933594 999.570312 89.945312 C 982.46875 92.96875 980.023438 95.414062 977.011719 112.507812 C 973.988281 95.40625 971.542969 92.960938 954.449219 89.945312 Z M 954.449219 89.945312 " fill-opacity="1" fill-rule="nonzero"/><path fill="#b4b4b4" d="M 1000.066406 342.574219 C 1011.839844 340.5 1013.519531 338.808594 1015.597656 327.042969 C 1017.671875 338.816406 1019.359375 340.5 1031.125 342.574219 C 1019.351562 344.648438 1017.671875 346.335938 1015.597656 358.101562 C 1013.519531 346.332031 1011.832031 344.648438 1000.066406 342.574219 Z M 1000.066406 342.574219 " fill-opacity="1" fill-rule="nonzero"/><path fill="#bdbdbd" d="M 212.839844 0.144531 C 214.289062 8.355469 215.46875 9.535156 223.679688 10.984375 C 215.46875 12.433594 214.289062 13.613281 212.839844 21.824219 C 211.390625 13.613281 210.210938 12.433594 202 10.984375 C 210.210938 9.535156 211.390625 8.355469 212.839844 0.144531 Z M 212.839844 0.144531 " fill-opacity="1" fill-rule="nonzero"/><path fill="#929292" d="M 550.28125 459.554688 C 552.75 473.546875 554.753906 475.546875 568.746094 478.015625 C 554.753906 480.484375 552.75 482.488281 550.28125 496.480469 C 547.8125 482.488281 545.8125 480.484375 531.820312 478.015625 C 545.8125 475.546875 547.8125 473.546875 550.28125 459.554688 Z M 550.28125 459.554688 " fill-opacity="1" fill-rule="nonzero"/><path fill="#bdbdbd" d="M 296.5625 154.203125 C 297.859375 161.535156 298.90625 162.582031 306.230469 163.871094 C 298.90625 165.167969 297.851562 166.214844 296.5625 173.539062 C 295.265625 166.207031 294.21875 165.160156 286.894531 163.871094 C 294.21875 162.574219 295.273438 161.527344 296.5625 154.203125 Z M 296.5625 154.203125 " fill-opacity="1" fill-rule="nonzero"/><path fill="#bdbdbd" d="M 711.542969 338.394531 C 712.835938 345.726562 713.886719 346.773438 721.210938 348.0625 C 713.886719 349.359375 712.828125 350.40625 711.542969 357.730469 C 710.246094 350.398438 709.195312 349.351562 701.871094 348.0625 C 709.195312 346.765625 710.253906 345.71875 711.542969 338.394531 Z M 711.542969 338.394531 " fill-opacity="1" fill-rule="nonzero"/><path fill="#bdbdbd" d="M 484.757812 45.265625 C 488.015625 63.703125 490.648438 66.335938 509.082031 69.589844 C 490.65625 72.84375 488.015625 75.480469 484.757812 93.914062 C 481.503906 75.480469 478.871094 72.84375 460.4375 69.589844 C 478.863281 66.335938 481.503906 63.703125 484.757812 45.265625 Z M 484.757812 45.265625 " fill-opacity="1" fill-rule="nonzero"/><path fill="#bdbdbd" d="M 200.828125 464.648438 C 203.296875 478.640625 205.296875 480.644531 219.289062 483.113281 C 205.296875 485.582031 203.296875 487.582031 200.828125 501.574219 C 198.359375 487.582031 196.355469 485.582031 182.363281 483.113281 C 196.355469 480.644531 198.359375 478.640625 200.828125 464.648438 Z M 200.828125 464.648438 " fill-opacity="1" fill-rule="nonzero"/><path fill="#bdbdbd" d="M 414.503906 120.960938 C 416.738281 133.621094 418.550781 135.425781 431.207031 137.660156 C 418.546875 139.898438 416.738281 141.710938 414.503906 154.363281 C 412.269531 141.703125 410.457031 139.898438 397.804688 137.660156 C 410.464844 135.425781 412.269531 133.613281 414.503906 120.960938 Z M 414.503906 120.960938 " fill-opacity="1" fill-rule="nonzero"/><path fill="#969696" d="M 177.53125 203.382812 C 181.257812 224.472656 184.273438 227.492188 205.371094 231.222656 C 184.273438 234.949219 181.257812 237.960938 177.53125 259.0625 C 173.804688 237.96875 170.789062 234.949219 149.691406 231.222656 C 170.789062 227.492188 173.804688 224.480469 177.53125 203.382812 Z M 177.53125 203.382812 " fill-opacity="1" fill-rule="nonzero"/><path fill="#969696" d="M 491.675781 401.660156 C 494.535156 417.867188 496.859375 420.1875 513.066406 423.050781 C 496.859375 425.910156 494.535156 428.234375 491.675781 444.441406 C 488.816406 428.234375 486.492188 425.910156 470.285156 423.050781 C 486.492188 420.1875 488.816406 417.867188 491.675781 401.660156 Z M 491.675781 401.660156 " fill-opacity="1" fill-rule="nonzero"/><path fill="#929292" d="M 41.023438 422.328125 C 44.046875 439.429688 46.492188 441.878906 63.585938 444.890625 C 46.492188 447.914062 44.039062 450.359375 41.023438 467.453125 C 38.003906 450.351562 35.558594 447.90625 18.460938 444.890625 C 35.558594 441.871094 38.011719 439.421875 41.023438 422.328125 Z M 41.023438 422.328125 " fill-opacity="1" fill-rule="nonzero"/><path fill="#bdbdbd" d="M 595.421875 181.046875 C 597.261719 191.476562 598.753906 192.976562 609.195312 194.820312 C 598.761719 196.660156 597.261719 198.152344 595.421875 208.59375 C 593.578125 198.160156 592.085938 196.660156 581.644531 194.820312 C 592.078125 192.976562 593.578125 191.484375 595.421875 181.046875 Z M 595.421875 181.046875 " fill-opacity="1" fill-rule="nonzero"/><path fill="#bdbdbd" d="M 270.71875 572.210938 C 274.285156 592.410156 277.175781 595.308594 297.386719 598.875 C 277.175781 602.445312 274.285156 605.335938 270.71875 625.542969 C 267.152344 605.34375 264.261719 602.445312 244.050781 598.875 C 264.261719 595.308594 267.152344 592.417969 270.71875 572.210938 Z M 270.71875 572.210938 " fill-opacity="1" fill-rule="nonzero"/><path fill="#bdbdbd" d="M 103.636719 358.175781 C 105.398438 368.164062 106.832031 369.597656 116.820312 371.359375 C 106.824219 373.121094 105.398438 374.554688 103.636719 384.542969 C 101.875 374.554688 100.4375 373.121094 90.449219 371.359375 C 100.445312 369.597656 101.875 368.164062 103.636719 358.175781 Z M 103.636719 358.175781 " fill-opacity="1" fill-rule="nonzero"/><path fill="#969696" d="M 424.332031 97.925781 C 425.703125 105.695312 426.816406 106.808594 434.589844 108.183594 C 426.824219 109.550781 425.707031 110.667969 424.332031 118.441406 C 422.964844 110.675781 421.851562 109.558594 414.074219 108.183594 C 421.84375 106.816406 422.957031 105.703125 424.332031 97.925781 Z M 424.332031 97.925781 " fill-opacity="1" fill-rule="nonzero"/><path fill="#969696" d="M 679.507812 187.902344 C 682.527344 205.003906 684.976562 207.449219 702.070312 210.464844 C 684.96875 213.488281 682.523438 215.933594 679.507812 233.027344 C 676.488281 215.925781 674.039062 213.480469 656.945312 210.464844 C 674.046875 207.445312 676.492188 204.996094 679.507812 187.902344 Z M 679.507812 187.902344 " fill-opacity="1" fill-rule="nonzero"/><path fill="#929292" d="M 426.882812 233.523438 C 428.957031 245.292969 430.644531 246.976562 442.410156 249.050781 C 430.636719 251.125 428.957031 252.816406 426.882812 264.578125 C 424.804688 252.808594 423.117188 251.125 411.351562 249.050781 C 423.125 246.976562 424.804688 245.285156 426.882812 233.523438 Z M 426.882812 233.523438 " fill-opacity="1" fill-rule="nonzero"/><path fill="#bdbdbd" d="M 29.011719 450.46875 C 32.890625 472.445312 36.039062 475.597656 58.023438 479.480469 C 36.042969 483.359375 32.890625 486.503906 29.011719 508.492188 C 25.132812 486.511719 21.988281 483.359375 0 479.480469 C 21.980469 475.597656 25.132812 472.453125 29.011719 450.46875 Z M 29.011719 450.46875 " fill-opacity="1" fill-rule="nonzero"/><g clip-path="url(#ea18197dfb)"><path fill="#c69f2b" d="M 1162.511719 159.433594 L 1153.007812 177.296875 C 1152.300781 178.628906 1151.550781 179.9375 1150.761719 181.222656 C 1149.976562 182.507812 1149.148438 183.769531 1148.28125 185.003906 C 1147.417969 186.238281 1146.511719 187.445312 1145.570312 188.621094 C 1144.632812 189.800781 1143.65625 190.949219 1142.644531 192.066406 C 1141.632812 193.183594 1140.585938 194.269531 1139.507812 195.324219 C 1138.429688 196.375 1137.320312 197.394531 1136.175781 198.378906 C 1135.035156 199.363281 1133.863281 200.3125 1132.664062 201.226562 C 1131.464844 202.136719 1130.234375 203.011719 1128.980469 203.847656 C 1127.726562 204.683594 1126.449219 205.480469 1125.144531 206.238281 C 1123.839844 206.996094 1122.515625 207.710938 1121.164062 208.386719 C 1119.816406 209.0625 1118.449219 209.695312 1117.0625 210.285156 C 1115.675781 210.875 1114.273438 211.421875 1112.851562 211.925781 C 1111.429688 212.429688 1109.996094 212.890625 1108.542969 213.304688 C 1107.09375 213.71875 1105.632812 214.089844 1104.160156 214.414062 C 1102.691406 214.738281 1101.207031 215.019531 1099.71875 215.25 C 1098.230469 215.484375 1096.734375 215.671875 1095.234375 215.8125 C 1093.730469 215.953125 1092.226562 216.046875 1090.71875 216.09375 C 1089.214844 216.140625 1087.707031 216.140625 1086.199219 216.09375 C 1084.691406 216.050781 1083.1875 215.957031 1081.6875 215.820312 C 1080.1875 215.679688 1078.691406 215.496094 1077.199219 215.265625 C 1075.710938 215.03125 1074.230469 214.753906 1072.757812 214.433594 C 1071.285156 214.109375 1069.824219 213.742188 1068.371094 213.328125 C 1066.921875 212.914062 1065.488281 212.457031 1064.066406 211.957031 C 1062.644531 211.453125 1061.238281 210.90625 1059.851562 210.320312 C 1058.460938 209.730469 1057.09375 209.097656 1055.746094 208.425781 C 1054.394531 207.75 1053.070312 207.035156 1051.765625 206.28125 C 1050.460938 205.527344 1049.179688 204.730469 1047.925781 203.894531 C 1046.667969 203.0625 1045.441406 202.1875 1044.238281 201.277344 C 1043.039062 200.367188 1041.867188 199.417969 1040.722656 198.4375 C 1039.578125 197.453125 1038.46875 196.433594 1037.386719 195.382812 C 1036.308594 194.332031 1035.261719 193.246094 1034.25 192.128906 C 1033.234375 191.011719 1032.257812 189.867188 1031.316406 188.6875 C 1030.375 187.511719 1029.46875 186.308594 1028.601562 185.074219 C 1027.734375 183.839844 1026.90625 182.582031 1026.117188 181.296875 C 1025.328125 180.011719 1024.578125 178.707031 1023.867188 177.375 C 1023.160156 176.042969 1022.492188 174.691406 1021.867188 173.320312 C 1021.242188 171.949219 1020.660156 170.558594 1020.121094 169.148438 C 1019.582031 167.742188 1019.085938 166.320312 1018.636719 164.878906 C 1018.183594 163.441406 1017.777344 161.992188 1017.417969 160.527344 C 1017.054688 159.0625 1016.738281 157.589844 1016.46875 156.105469 C 1016.199219 154.621094 1015.976562 153.132812 1015.796875 151.636719 C 1015.617188 150.136719 1015.488281 148.636719 1015.402344 147.132812 C 1015.316406 145.625 1015.277344 144.121094 1015.285156 142.613281 C 1015.292969 141.105469 1015.347656 139.597656 1015.449219 138.09375 C 1015.550781 136.589844 1015.699219 135.089844 1015.890625 133.59375 C 1016.085938 132.101562 1016.324219 130.613281 1016.609375 129.132812 C 1016.898438 127.652344 1017.226562 126.179688 1017.605469 124.722656 C 1017.980469 123.261719 1018.402344 121.816406 1018.871094 120.378906 C 1019.335938 118.945312 1019.847656 117.527344 1020.398438 116.125 C 1020.953125 114.722656 1021.550781 113.339844 1022.191406 111.976562 C 1022.828125 110.609375 1023.511719 109.265625 1024.234375 107.941406 C 1024.957031 106.617188 1025.71875 105.320312 1026.523438 104.042969 C 1027.324219 102.765625 1028.167969 101.515625 1029.046875 100.292969 C 1029.929688 99.070312 1030.84375 97.875 1031.800781 96.707031 C 1032.753906 95.539062 1033.742188 94.402344 1034.769531 93.296875 C 1035.792969 92.191406 1036.851562 91.117188 1037.941406 90.078125 C 1039.03125 89.035156 1040.15625 88.03125 1041.308594 87.058594 C 1042.460938 86.085938 1043.644531 85.152344 1044.855469 84.253906 C 1046.066406 83.355469 1047.304688 82.496094 1048.566406 81.675781 C 1049.832031 80.855469 1051.121094 80.070312 1052.433594 79.332031 C 1053.746094 78.589844 1055.078125 77.886719 1056.433594 77.226562 C 1057.789062 76.570312 1059.164062 75.953125 1060.558594 75.378906 C 1061.953125 74.804688 1063.363281 74.273438 1064.792969 73.785156 C 1066.21875 73.296875 1067.660156 72.855469 1069.113281 72.457031 L 1088.441406 67.234375 L 1074.128906 81.234375 C 1073.121094 82.230469 1072.15625 83.257812 1071.226562 84.324219 C 1070.296875 85.390625 1069.40625 86.492188 1068.558594 87.621094 C 1067.710938 88.753906 1066.90625 89.914062 1066.144531 91.105469 C 1065.378906 92.296875 1064.664062 93.515625 1063.988281 94.761719 C 1063.316406 96.003906 1062.691406 97.273438 1062.113281 98.5625 C 1061.535156 99.851562 1061.003906 101.164062 1060.519531 102.492188 C 1060.039062 103.820312 1059.605469 105.167969 1059.222656 106.527344 C 1058.839844 107.890625 1058.507812 109.265625 1058.226562 110.652344 C 1057.945312 112.035156 1057.714844 113.429688 1057.535156 114.835938 C 1057.359375 116.238281 1057.230469 117.644531 1057.15625 119.058594 C 1057.082031 120.46875 1057.0625 121.882812 1057.089844 123.296875 C 1057.121094 124.710938 1057.203125 126.121094 1057.335938 127.53125 C 1057.472656 128.9375 1057.65625 130.339844 1057.894531 131.734375 C 1058.132812 133.128906 1058.421875 134.511719 1058.761719 135.886719 C 1059.101562 137.257812 1059.488281 138.617188 1059.929688 139.960938 C 1060.371094 141.304688 1060.859375 142.632812 1061.398438 143.9375 C 1061.933594 145.246094 1062.519531 146.535156 1063.152344 147.796875 C 1063.785156 149.0625 1064.464844 150.304688 1065.1875 151.519531 C 1065.914062 152.734375 1066.683594 153.917969 1067.496094 155.078125 C 1068.304688 156.234375 1069.160156 157.363281 1070.054688 158.457031 C 1070.949219 159.550781 1071.886719 160.613281 1072.859375 161.636719 C 1073.832031 162.664062 1074.84375 163.652344 1075.890625 164.605469 C 1076.9375 165.554688 1078.015625 166.46875 1079.128906 167.339844 C 1080.242188 168.210938 1081.386719 169.039062 1082.5625 169.828125 C 1083.738281 170.613281 1084.941406 171.355469 1086.171875 172.054688 C 1087.402344 172.753906 1088.65625 173.40625 1089.933594 174.011719 C 1091.210938 174.617188 1092.511719 175.171875 1093.828125 175.683594 C 1095.148438 176.191406 1096.484375 176.652344 1097.839844 177.066406 C 1099.191406 177.476562 1100.558594 177.835938 1101.9375 178.144531 C 1103.320312 178.457031 1104.707031 178.714844 1106.109375 178.921875 C 1107.507812 179.128906 1108.910156 179.285156 1110.320312 179.390625 C 1111.734375 179.492188 1113.144531 179.546875 1114.558594 179.546875 C 1120.0625 179.566406 1125.453125 178.804688 1130.734375 177.257812 C 1136.015625 175.710938 1140.96875 173.445312 1145.589844 170.457031 Z M 1162.511719 159.433594 " fill-opacity="1" fill-rule="nonzero"/></g></svg>