<svg xmlns="http://www.w3.org/2000/svg" viewBox="0 0 580 135"><defs><style>.brand-shape{fill:#09c}</style></defs><path class="brand-shape" d="M10 2h50c25 0 32 12 32 28 0 14-7 22-17 24 13 2 25 12 25 28 0 20-20 27-45 27H10zm28 24v20h17c11 0 13-4 13-10s-2-10-13-10zm0 40v21h17c17 0 19-4 19-11s-2-10-19-10zm64-64h28v80h37v27h-65zm68 0h28v107h-28z"/><path fill="#fc3" d="M203.286 2.931a1.815 1.911 0 0 1 1.667-1.131h51.61a1.852 1.95 0 0 1 1.557.897l39.68 66.3A1.815 1.911 0 0 1 296.282 72h-28.417l25.083 51.675a1.927 2.028 0 0 1-1.704 2.925h-11.115a1.852 1.95 0 0 1-1.371-.624L213.66 51.915a1.852 1.95 0 0 1 1.37-3.315h24.973l-36.42-43.602a1.815 1.911 0 0 1-.297-2.067"/><path class="brand-shape" d="M303 2h28v80h37v27h-65zm117 0h30l30 107h-30l-7-30h-36l-7 30h-30L400 2Zm-5 54h20l-10-37Zm67-54h50c25 0 32 12 32 28 0 14-7 22-17 24 13 2 25 12 25 28 0 20-20 27-45 27h-45zm28 24v20h17c11 0 13-4 13-10s-2-10-13-10zm0 40v21h17c17 0 19-4 19-11s-2-10-19-10z"/></svg>