<svg xmlns="http://www.w3.org/2000/svg" viewBox="0 0 580 135"><defs><linearGradient id="blueShade" x1="0%" y1="0%" x2="0%" y2="100%"><stop offset="60%" style="stop-color:#09c;stop-opacity:1"/><stop offset="100%" style="stop-color:#0085ad;stop-opacity:1"/></linearGradient><linearGradient id="yellowShade" x1="0%" y1="0%" x2="0%" y2="100%"><stop offset="60%" style="stop-color:#fc3;stop-opacity:1"/><stop offset="100%" style="stop-color:#f2c025;stop-opacity:1"/></linearGradient><style>.brand-shape{fill:url(#blueShade)}</style></defs><path class="brand-shape" d="M10 2h50c25 0 32 12 32 28 0 14-7 22-17 24 13 2 25 12 25 28 0 20-20 27-45 27H10zm28 24v20h17c11 0 13-4 13-10s-2-10-13-10zm0 40v21h17c17 0 19-4 19-11s-2-10-19-10z"/><path class="brand-shape" d="M102 2h28v80h37v27h-65z"/><path class="brand-shape" d="M170 2h28v107h-28z"/><path fill="url(#yellowShade)" d="M30.8 2.29a.49.49 0 0 0-.45-.29H16.42a.5.5 0 0 0-.42.23l-10.71 17a.49.49 0 0 0 .41.77h7.67L6.6 33.25a.52.52 0 0 0 .46.75h3a.5.5 0 0 0 .37-.16L28 14.85a.5.5 0 0 0-.37-.85h-6.74l9.83-11.18a.49.49 0 0 0 .08-.53" transform="matrix(-3.7 0 0 3.9 317.4 -6)"/><path class="brand-shape" d="M303 2h28v80h37v27h-65z"/><path class="brand-shape" d="M420 2h30l30 107h-30l-7-30h-36l-7 30h-30L400 2Zm-5 54h20l-10-37Z"/><path class="brand-shape" d="M482 2h50c25 0 32 12 32 28 0 14-7 22-17 24 13 2 25 12 25 28 0 20-20 27-45 27h-45zm28 24v20h17c11 0 13-4 13-10s-2-10-13-10zm0 40v21h17c17 0 19-4 19-11s-2-10-19-10z"/></svg>