<svg xmlns="http://www.w3.org/2000/svg" width="512" height="512" viewBox="0 0 28 28">
  <defs>
    <radialGradient id="blue-glow" cx="50%" cy="50%" r="50%" fx="50%" fy="50%">
      <stop offset="0%" stop-color="#0081AA" stop-opacity="0.8" />
      <stop offset="100%" stop-color="#0081AA" stop-opacity="0" />
    </radialGradient>
  </defs>

  <rect width="28" height="28" fill="#1a1a1a" />

  <rect width="28" height="28" fill="url(#blue-glow)" />

  <g transform="translate(6, 6)">
    <path fill="#fff" d="M0 1h16v12H8.414L6 15.414L3.586 13H0zm6 6a1 1 0 1 0-2 0a1 1 0 0 0 2 0m3 0a1 1 0 1 0-2 0a1 1 0 0 0 2 0m3 0a1 1 0 1 0-2 0a1 1 0 0 0 2 0"/>
  </g>
</svg>